<svg xmlns="http://www.w3.org/2000/svg" xmlns:xlink="http://www.w3.org/1999/xlink" width="500" zoomAndPan="magnify" viewBox="0 0 375 374.999991" height="500" preserveAspectRatio="xMidYMid meet" version="1.0"><defs><clipPath id="8d69081ff7"><path d="M 22.222656 22.222656 L 352.777344 22.222656 L 352.777344 352.777344 L 22.222656 352.777344 Z M 22.222656 22.222656 " clip-rule="nonzero"/></clipPath><clipPath id="94ac0b67a6"><path d="M 187.5 22.222656 C 96.21875 22.222656 22.222656 96.21875 22.222656 187.5 C 22.222656 278.78125 96.21875 352.777344 187.5 352.777344 C 278.78125 352.777344 352.777344 278.78125 352.777344 187.5 C 352.777344 96.21875 278.78125 22.222656 187.5 22.222656 Z M 187.5 22.222656 " clip-rule="nonzero"/></clipPath><clipPath id="c9e4677e7e"><path d="M 185 124 L 311.964844 124 L 311.964844 210 L 185 210 Z M 185 124 " clip-rule="nonzero"/></clipPath><clipPath id="842e1ba9c0"><path d="M 130 49.894531 L 224 49.894531 L 224 325 L 130 325 Z M 130 49.894531 " clip-rule="nonzero"/></clipPath></defs><g clip-path="url(#8d69081ff7)"><g clip-path="url(#94ac0b67a6)"><path fill="#ffffff" d="M 22.222656 22.222656 L 352.777344 22.222656 L 352.777344 352.777344 L 22.222656 352.777344 Z M 22.222656 22.222656 " fill-opacity="1" fill-rule="nonzero"/></g></g><path fill="#100f0d" d="M 101.167969 246.621094 C 91.253906 251.171875 80.167969 248.21875 76.410156 240.023438 C 72.648438 231.828125 77.640625 221.496094 87.554688 216.941406 C 97.46875 212.390625 108.550781 215.347656 112.3125 223.539062 C 116.070312 231.734375 111.082031 242.070312 101.167969 246.621094 Z M 161.777344 207.863281 L 152.554688 198.03125 L 116.703125 214.488281 C 109.492188 206.863281 96.421875 204.839844 84.511719 210.308594 C 70.164062 216.898438 62.945312 231.847656 68.382812 243.707031 C 73.824219 255.566406 89.863281 259.839844 104.210938 253.253906 C 116.117188 247.785156 123.113281 236.550781 122.035156 226.113281 L 161.777344 207.863281 " fill-opacity="1" fill-rule="nonzero"/><g clip-path="url(#c9e4677e7e)"><path fill="#100f0d" d="M 194.195312 178.914062 L 185.964844 209.535156 L 306.996094 130.378906 L 311.933594 124.859375 L 194.195312 178.914062 " fill-opacity="1" fill-rule="nonzero"/></g><g clip-path="url(#842e1ba9c0)"><path fill="#100f0d" d="M 169.929688 286.578125 C 167.097656 297.121094 157.746094 303.761719 149.039062 301.421875 C 140.335938 299.082031 135.578125 288.640625 138.40625 278.101562 C 141.242188 267.5625 150.59375 260.917969 159.296875 263.257812 C 168 265.597656 172.761719 276.042969 169.929688 286.578125 Z M 169.824219 193.058594 C 170.695312 192.027344 172.234375 191.898438 173.261719 192.769531 C 174.292969 193.640625 174.421875 195.179688 173.554688 196.207031 C 172.679688 197.238281 171.144531 197.367188 170.113281 196.5 C 169.085938 195.628906 168.957031 194.089844 169.824219 193.058594 Z M 167.484375 257.421875 L 184.996094 192.257812 L 223.253906 49.894531 L 218.636719 55.683594 L 157.648438 195.53125 L 167.933594 206.5 L 155.140625 254.101562 C 144.671875 254.78125 134.765625 263.546875 131.363281 276.207031 C 127.265625 291.457031 134.152344 306.566406 146.75 309.953125 C 150.835938 311.054688 155.023438 310.773438 158.957031 309.386719 C 160.53125 314.449219 163.09375 318.496094 166.617188 321.476562 C 167.894531 322.554688 169.296875 323.492188 170.824219 324.292969 C 172.414062 325.125 174.382812 324.507812 175.214844 322.917969 C 176.042969 321.324219 175.429688 319.355469 173.835938 318.523438 C 169.351562 316.179688 166.398438 312.183594 164.847656 306.339844 C 170.410156 302.460938 174.898438 296.195312 176.972656 288.472656 C 180.375 275.8125 176.203125 263.257812 167.484375 257.421875 " fill-opacity="1" fill-rule="nonzero"/></g><path fill="#100f0d" d="M 160.40625 214.390625 L 161.800781 216.007812 L 163.136719 211.042969 L 162.355469 211.402344 L 160.433594 213.054688 C 160.0625 213.375 160.050781 213.972656 160.40625 214.390625 " fill-opacity="1" fill-rule="nonzero"/><path fill="#100f0d" d="M 183.355469 215.371094 L 182.148438 216.160156 L 182.0625 216.484375 Z M 183.355469 215.371094 " fill-opacity="1" fill-rule="nonzero"/><path fill="#100f0d" d="M 145.777344 197.339844 L 153.371094 193.851562 L 154.21875 194.75 L 158.214844 185.585938 L 145.917969 196.164062 C 145.589844 196.445312 145.542969 196.9375 145.777344 197.339844 " fill-opacity="1" fill-rule="nonzero"/><path fill="#100f0d" d="M 216.382812 193.773438 L 201.914062 203.234375 L 203.652344 205.257812 L 179.496094 226.035156 L 177.335938 234.074219 C 177.695312 234.417969 178.234375 234.46875 178.578125 234.167969 L 207.28125 209.484375 L 210.910156 213.703125 L 182.207031 238.390625 C 181.835938 238.710938 181.824219 239.308594 182.183594 239.726562 L 184.515625 242.4375 C 184.871094 242.859375 185.464844 242.9375 185.835938 242.613281 L 214.539062 217.925781 L 218.167969 222.152344 L 189.464844 246.835938 C 189.09375 247.15625 189.082031 247.753906 189.441406 248.171875 L 191.773438 250.886719 C 192.128906 251.300781 192.722656 251.378906 193.09375 251.0625 L 221.796875 226.375 L 225.425781 230.59375 L 196.726562 255.28125 C 196.351562 255.601562 196.339844 256.203125 196.699219 256.617188 L 199.027344 259.332031 C 199.386719 259.75 199.980469 259.828125 200.355469 259.503906 L 229.054688 234.820312 L 232.683594 239.042969 L 203.984375 263.726562 C 203.609375 264.050781 203.597656 264.644531 203.957031 265.066406 L 206.289062 267.777344 C 206.644531 268.195312 207.238281 268.269531 207.613281 267.953125 L 236.3125 243.265625 L 239.941406 247.488281 L 211.242188 272.175781 C 210.867188 272.496094 210.855469 273.09375 211.214844 273.507812 L 213.546875 276.222656 C 213.902344 276.640625 214.496094 276.71875 214.871094 276.394531 L 243.570312 251.710938 L 247.199219 255.933594 L 218.5 280.621094 C 218.125 280.941406 218.113281 281.539062 218.476562 281.957031 L 220.804688 284.667969 C 221.164062 285.085938 221.757812 285.164062 222.128906 284.84375 L 250.832031 260.15625 L 254.460938 264.378906 L 225.757812 289.066406 C 225.382812 289.386719 225.375 289.984375 225.734375 290.402344 L 228.0625 293.113281 C 228.421875 293.53125 229.011719 293.609375 229.386719 293.289062 L 258.089844 268.601562 L 261.71875 272.824219 L 233.015625 297.511719 C 232.640625 297.832031 232.632812 298.429688 232.992188 298.847656 L 235.320312 301.558594 C 235.679688 301.976562 236.273438 302.054688 236.644531 301.734375 L 265.347656 277.046875 L 268.976562 281.273438 L 240.566406 305.703125 C 240.035156 306.164062 240.019531 307.023438 240.53125 307.625 L 244.617188 312.375 C 245.910156 313.878906 248.046875 314.160156 249.390625 313.003906 L 278.519531 287.949219 C 284.488281 282.816406 284.675781 273.242188 278.9375 266.566406 L 216.382812 193.773438 " fill-opacity="1" fill-rule="nonzero"/><path fill="#100f0d" d="M 198.605469 173.085938 L 194.886719 168.761719 L 193.039062 175.640625 Z M 198.605469 173.085938 " fill-opacity="1" fill-rule="nonzero"/><path fill="#100f0d" d="M 75.359375 115.421875 C 75.871094 116.019531 76.722656 116.132812 77.257812 115.671875 L 105.667969 91.242188 L 109.296875 95.464844 L 80.59375 120.152344 C 80.21875 120.46875 80.210938 121.070312 80.570312 121.488281 L 82.898438 124.199219 C 83.257812 124.617188 83.847656 124.695312 84.222656 124.375 L 112.925781 99.683594 L 116.554688 103.910156 L 87.851562 128.59375 C 87.476562 128.917969 87.46875 129.515625 87.828125 129.929688 L 90.15625 132.644531 C 90.515625 133.058594 91.109375 133.140625 91.480469 132.820312 L 120.183594 108.132812 L 123.8125 112.355469 L 95.109375 137.042969 C 94.738281 137.363281 94.726562 137.960938 95.085938 138.378906 L 97.417969 141.089844 C 97.773438 141.507812 98.367188 141.585938 98.742188 141.265625 L 127.441406 116.578125 L 131.074219 120.800781 L 102.371094 145.488281 C 101.996094 145.808594 101.984375 146.40625 102.34375 146.824219 L 104.675781 149.535156 C 105.035156 149.953125 105.625 150.03125 106 149.710938 L 134.703125 125.023438 L 138.332031 129.246094 L 109.625 153.933594 C 109.253906 154.253906 109.242188 154.851562 109.601562 155.269531 L 111.933594 157.984375 C 112.289062 158.398438 112.882812 158.476562 113.253906 158.15625 L 141.960938 133.472656 L 145.589844 137.691406 L 116.882812 162.378906 C 116.511719 162.699219 116.5 163.296875 116.859375 163.714844 L 119.191406 166.425781 C 119.546875 166.84375 120.140625 166.921875 120.515625 166.601562 L 149.21875 141.914062 L 152.847656 146.136719 L 124.144531 170.824219 C 123.769531 171.148438 123.757812 171.742188 124.117188 172.160156 L 126.449219 174.875 C 126.808594 175.289062 127.402344 175.367188 127.773438 175.046875 L 156.476562 150.363281 L 160.105469 154.582031 L 131.402344 179.273438 C 131.03125 179.589844 131.015625 180.191406 131.375 180.605469 L 133.707031 183.316406 C 134.066406 183.738281 134.660156 183.816406 135.03125 183.492188 L 163.734375 158.804688 L 167.363281 163.03125 L 138.660156 187.714844 C 138.289062 188.039062 138.277344 188.636719 138.632812 189.050781 L 140.964844 191.765625 C 141.324219 192.179688 141.917969 192.257812 142.289062 191.941406 L 163.339844 173.832031 L 175.429688 146.117188 L 121.675781 83.570312 C 115.9375 76.894531 106.445312 75.640625 100.480469 80.773438 L 71.347656 105.832031 C 70.003906 106.988281 69.960938 109.144531 71.253906 110.648438 L 75.359375 115.421875 " fill-opacity="1" fill-rule="nonzero"/></svg>