<?xml version="1.0" encoding="UTF-8"?>
<svg width="1600" height="900" viewBox="0 0 1600 900" fill="none" xmlns="http://www.w3.org/2000/svg">
  <defs>
    <linearGradient id="bg-hur-du-forebygger-vattenskador" x1="0" y1="0" x2="1600" y2="900" gradientUnits="userSpaceOnUse">
      <stop offset="0" stop-color="#083344"/>
      <stop offset="0.55" stop-color="#0e7490"/>
      <stop offset="1" stop-color="#22d3ee"/>
    </linearGradient>
  </defs>
  <rect width="1600" height="900" fill="url(#bg-hur-du-forebygger-vattenskador)"/>
  <rect x="72" y="72" width="1456" height="756" rx="34" fill="#f8fafc" fill-opacity="0.94"/>
  <rect x="120" y="136" width="278" height="54" rx="27" fill="#0b1220"/>
  <text x="146" y="170" font-family="'Arial', 'Helvetica Neue', sans-serif" font-size="28" font-weight="700" fill="#f8fafc">VVS Installation</text>
  <text x="120" y="236" font-family="'Arial', 'Helvetica Neue', sans-serif" font-size="30" font-weight="700" fill="#1e293b">Vatten &amp; Avlopp</text>
  <text x="120" y="336" font-family="'Arial', 'Helvetica Neue', sans-serif" font-size="56" font-weight="700" fill="#0b1220">Hur du förebygger vattenskador</text>
  <rect x="1010" y="220" width="360" height="360" rx="40" fill="#dbeafe"/>
  
      <path d="M1140 282 C1086 356 1062 404 1062 450 C1062 515 1115 568 1180 568 C1245 568 1298 515 1298 450 C1298 402 1272 354 1218 282 C1205 266 1192 252 1180 240 C1168 252 1153 268 1140 282 Z" fill="none" stroke="#0b1220" stroke-width="18"/>
      <path d="M1124 454 C1124 486 1149 512 1181 512" fill="none" stroke="#0b1220" stroke-width="12" stroke-linecap="round"/>
    
  <text x="120" y="610" font-family="'Arial', 'Helvetica Neue', sans-serif" font-size="30" font-weight="500" fill="#334155">Praktisk guide, checklista och steg for steg-rad i verkliga projekt.</text>
</svg>
