<?xml version="1.0" encoding="UTF-8"?>
<svg width="1600" height="900" viewBox="0 0 1600 900" fill="none" xmlns="http://www.w3.org/2000/svg">
  <defs>
    <linearGradient id="bg-nar-behover-du-anlita-en-certifierad-vvs-installator" x1="0" y1="0" x2="1600" y2="900" gradientUnits="userSpaceOnUse">
      <stop offset="0" stop-color="#0f172a"/>
      <stop offset="0.55" stop-color="#1d4ed8"/>
      <stop offset="1" stop-color="#38bdf8"/>
    </linearGradient>
  </defs>
  <rect width="1600" height="900" fill="url(#bg-nar-behover-du-anlita-en-certifierad-vvs-installator)"/>
  <rect x="72" y="72" width="1456" height="756" rx="34" fill="#f8fafc" fill-opacity="0.94"/>
  <rect x="120" y="136" width="278" height="54" rx="27" fill="#0b1220"/>
  <text x="146" y="170" font-family="'Arial', 'Helvetica Neue', sans-serif" font-size="28" font-weight="700" fill="#f8fafc">VVS Installation</text>
  <text x="120" y="236" font-family="'Arial', 'Helvetica Neue', sans-serif" font-size="30" font-weight="700" fill="#1e293b">VVS</text>
  <text x="120" y="336" font-family="'Arial', 'Helvetica Neue', sans-serif" font-size="56" font-weight="700" fill="#0b1220">När behöver du anlita en</text>
<text x="120" y="404" font-family="'Arial', 'Helvetica Neue', sans-serif" font-size="56" font-weight="700" fill="#0b1220">certifierad VVS-installatör?</text>
  <rect x="1010" y="220" width="360" height="360" rx="40" fill="#dbeafe"/>
  
    <path d="M1068 502 L1158 412" stroke="#0b1220" stroke-width="24" stroke-linecap="round"/>
    <path d="M1176 394 L1242 328 C1264 306 1300 306 1322 328 L1338 344 C1360 366 1360 402 1338 424 L1272 490" fill="none" stroke="#0b1220" stroke-width="18"/>
    <circle cx="1102" cy="536" r="38" fill="none" stroke="#0b1220" stroke-width="18"/>
  
  <text x="120" y="610" font-family="'Arial', 'Helvetica Neue', sans-serif" font-size="30" font-weight="500" fill="#334155">Praktisk guide, checklista och steg for steg-rad i verkliga projekt.</text>
</svg>
