<svg xmlns="http://www.w3.org/2000/svg" width="1200" height="700" viewBox="0 0 1200 700" role="img" aria-labelledby="title desc">
  <title id="title">Lufta element</title>
  <desc id="desc">Illustration av element med luftningsnyckel och kopp.</desc>
  <rect width="1200" height="700" fill="#f8fafc" />
  <rect x="90" y="130" width="1020" height="460" rx="24" fill="#ffffff" stroke="#0f172a" stroke-width="6" />
  <rect x="170" y="210" width="760" height="320" rx="16" fill="#e2e8f0" stroke="#475569" stroke-width="6" />
  <g fill="#cbd5e1" stroke="#475569" stroke-width="3">
    <rect x="205" y="245" width="60" height="250" rx="10" />
    <rect x="285" y="245" width="60" height="250" rx="10" />
    <rect x="365" y="245" width="60" height="250" rx="10" />
    <rect x="445" y="245" width="60" height="250" rx="10" />
    <rect x="525" y="245" width="60" height="250" rx="10" />
    <rect x="605" y="245" width="60" height="250" rx="10" />
    <rect x="685" y="245" width="60" height="250" rx="10" />
    <rect x="765" y="245" width="60" height="250" rx="10" />
  </g>
  <circle cx="920" cy="250" r="24" fill="#1d4ed8" />
  <rect x="940" y="240" width="90" height="20" rx="8" fill="#1d4ed8" />
  <rect x="930" y="410" width="120" height="90" rx="12" fill="#bae6fd" stroke="#0c4a6e" stroke-width="4" />
  <path d="M880 250 q-30 25 -20 50" stroke="#94a3b8" stroke-width="5" fill="none" stroke-dasharray="8 8" />
  <path d="M860 305 q-12 22 0 44" stroke="#94a3b8" stroke-width="5" fill="none" stroke-dasharray="8 8" />
  <text x="120" y="90" fill="#111827" font-size="48" font-family="Arial, sans-serif" font-weight="700">Lufta element: öppna ventilen försiktigt tills jämn vattenstråle kommer</text>
</svg>
