<svg xmlns="http://www.w3.org/2000/svg" xmlns:xlink="http://www.w3.org/1999/xlink" width="500" zoomAndPan="magnify" viewBox="0 0 375 374.999991" height="500" preserveAspectRatio="xMidYMid meet" version="1.0"><defs><clipPath id="b247e6884c"><path d="M 185 102 L 357.5625 102 L 357.5625 218 L 185 218 Z M 185 102 " clip-rule="nonzero"/></clipPath></defs><rect x="-37.5" width="450" fill="#ffffff" y="-37.499999" height="449.999989" fill-opacity="1"/><rect x="-37.5" width="450" fill="#ffffff" y="-37.499999" height="449.999989" fill-opacity="1"/><path fill="#100f0d" d="M 69.9375 268.019531 C 56.40625 274.21875 41.285156 270.199219 36.152344 259.03125 C 31.023438 247.863281 37.832031 233.789062 51.359375 227.585938 C 64.886719 221.386719 80.011719 225.410156 85.144531 236.574219 C 90.269531 247.742188 83.464844 261.820312 69.9375 268.019531 Z M 152.636719 215.21875 L 140.050781 201.820312 L 91.132812 224.246094 C 81.292969 213.855469 63.460938 211.097656 47.210938 218.550781 C 27.632812 227.523438 17.78125 247.894531 25.203125 264.050781 C 32.625 280.207031 54.511719 286.03125 74.085938 277.054688 C 90.335938 269.605469 99.878906 254.300781 98.40625 240.078125 L 152.636719 215.21875 " fill-opacity="1" fill-rule="nonzero"/><g clip-path="url(#b247e6884c)"><path fill="#100f0d" d="M 196.867188 175.773438 L 185.640625 217.492188 L 350.777344 109.652344 L 357.515625 102.132812 L 196.867188 175.773438 " fill-opacity="1" fill-rule="nonzero"/></g><path fill="#100f0d" d="M 163.757812 322.460938 C 159.894531 336.820312 147.132812 345.871094 135.257812 342.683594 C 123.378906 339.496094 116.886719 325.265625 120.75 310.910156 C 124.613281 296.550781 137.375 287.5 149.25 290.6875 C 161.128906 293.875 167.625 308.101562 163.757812 322.460938 Z M 163.617188 195.046875 C 164.800781 193.644531 166.902344 193.46875 168.308594 194.652344 C 169.714844 195.839844 169.886719 197.9375 168.703125 199.339844 C 167.511719 200.742188 165.417969 200.917969 164.011719 199.734375 C 162.605469 198.550781 162.429688 196.449219 163.617188 195.046875 Z M 160.421875 282.734375 L 184.316406 193.957031 L 236.519531 0 L 230.214844 7.890625 L 147 198.417969 L 161.035156 213.359375 L 143.582031 278.210938 C 129.292969 279.136719 115.777344 291.082031 111.140625 308.328125 C 105.546875 329.105469 114.945312 349.691406 132.132812 354.304688 C 137.707031 355.804688 143.421875 355.421875 148.785156 353.53125 C 150.933594 360.425781 154.429688 365.941406 159.238281 370 C 160.980469 371.472656 162.894531 372.75 164.976562 373.839844 C 167.152344 374.972656 169.832031 374.132812 170.96875 371.964844 C 172.101562 369.792969 171.261719 367.113281 169.089844 365.980469 C 162.96875 362.785156 158.941406 357.34375 156.824219 349.378906 C 164.414062 344.097656 170.539062 335.558594 173.367188 325.039062 C 178.011719 307.792969 172.320312 290.6875 160.421875 282.734375 " fill-opacity="1" fill-rule="nonzero"/><path fill="#100f0d" d="M 150.765625 224.109375 L 152.664062 226.3125 L 154.488281 219.550781 L 153.421875 220.039062 L 150.804688 222.289062 C 150.292969 222.722656 150.28125 223.539062 150.765625 224.109375 " fill-opacity="1" fill-rule="nonzero"/><path fill="#100f0d" d="M 182.078125 225.449219 L 180.433594 226.523438 L 180.3125 226.960938 Z M 182.078125 225.449219 " fill-opacity="1" fill-rule="nonzero"/><path fill="#100f0d" d="M 130.804688 200.878906 L 141.167969 196.128906 L 142.320312 197.355469 L 147.773438 184.867188 L 130.996094 199.277344 C 130.550781 199.660156 130.484375 200.332031 130.804688 200.878906 " fill-opacity="1" fill-rule="nonzero"/><path fill="#100f0d" d="M 227.140625 196.019531 L 207.402344 208.910156 L 209.773438 211.667969 L 176.808594 239.976562 L 173.863281 250.925781 C 174.355469 251.390625 175.089844 251.460938 175.5625 251.054688 L 214.722656 217.421875 L 219.675781 223.175781 L 180.511719 256.804688 C 180.003906 257.246094 179.988281 258.058594 180.476562 258.628906 L 183.660156 262.324219 C 184.148438 262.894531 184.957031 263 185.464844 262.558594 L 224.628906 228.929688 L 229.578125 234.683594 L 190.417969 268.316406 C 189.90625 268.75 189.894531 269.566406 190.378906 270.136719 L 193.5625 273.832031 C 194.050781 274.398438 194.859375 274.503906 195.367188 274.070312 L 234.53125 240.4375 L 239.484375 246.1875 L 200.320312 279.820312 C 199.8125 280.257812 199.796875 281.074219 200.285156 281.640625 L 203.464844 285.335938 C 203.953125 285.90625 204.761719 286.011719 205.269531 285.574219 L 244.433594 251.941406 L 249.386719 257.695312 L 210.222656 291.328125 C 209.714844 291.765625 209.699219 292.578125 210.1875 293.148438 L 213.371094 296.84375 C 213.855469 297.410156 214.664062 297.515625 215.175781 297.082031 L 254.335938 263.449219 L 259.289062 269.203125 L 220.125 302.835938 C 219.617188 303.269531 219.601562 304.085938 220.089844 304.652344 L 223.273438 308.347656 C 223.761719 308.917969 224.570312 309.023438 225.078125 308.585938 L 264.242188 274.953125 L 269.191406 280.707031 L 230.03125 314.339844 C 229.519531 314.777344 229.507812 315.59375 229.996094 316.160156 L 233.175781 319.855469 C 233.664062 320.421875 234.476562 320.527344 234.984375 320.09375 L 274.148438 286.460938 L 279.097656 292.214844 L 239.933594 325.847656 C 239.425781 326.285156 239.410156 327.097656 239.898438 327.667969 L 243.078125 331.359375 C 243.570312 331.929688 244.375 332.039062 244.882812 331.597656 L 284.050781 297.964844 L 289 303.71875 L 249.835938 337.351562 C 249.328125 337.792969 249.3125 338.605469 249.804688 339.171875 L 252.984375 342.871094 C 253.46875 343.4375 254.28125 343.546875 254.789062 343.105469 L 293.949219 309.472656 L 298.90625 315.226562 L 260.140625 348.511719 C 259.414062 349.140625 259.390625 350.3125 260.09375 351.132812 L 265.664062 357.601562 C 267.429688 359.652344 270.34375 360.035156 272.183594 358.460938 L 311.925781 324.328125 C 320.070312 317.335938 320.328125 304.285156 312.496094 295.191406 L 227.140625 196.019531 " fill-opacity="1" fill-rule="nonzero"/><path fill="#100f0d" d="M 202.886719 167.835938 L 197.8125 161.945312 L 195.289062 171.316406 Z M 202.886719 167.835938 " fill-opacity="1" fill-rule="nonzero"/><path fill="#100f0d" d="M 34.71875 89.277344 C 35.421875 90.089844 36.582031 90.246094 37.3125 89.617188 L 76.074219 56.332031 L 81.03125 62.085938 L 41.863281 95.71875 C 41.355469 96.152344 41.339844 96.96875 41.832031 97.539062 L 45.011719 101.230469 C 45.496094 101.800781 46.304688 101.90625 46.816406 101.472656 L 85.980469 67.835938 L 90.933594 73.589844 L 51.765625 107.222656 C 51.257812 107.660156 51.242188 108.476562 51.734375 109.042969 L 54.914062 112.738281 C 55.402344 113.304688 56.210938 113.414062 56.71875 112.976562 L 95.882812 79.34375 L 100.832031 85.097656 L 61.667969 118.730469 C 61.164062 119.164062 61.144531 119.980469 61.636719 120.550781 L 64.816406 124.246094 C 65.304688 124.8125 66.117188 124.917969 66.625 124.484375 L 105.785156 90.847656 L 110.738281 96.601562 L 71.578125 130.234375 C 71.066406 130.671875 71.050781 131.488281 71.539062 132.054688 L 74.71875 135.75 C 75.210938 136.320312 76.019531 136.425781 76.527344 135.988281 L 115.691406 102.355469 L 120.644531 108.109375 L 81.476562 141.742188 C 80.96875 142.179688 80.953125 142.992188 81.445312 143.5625 L 84.625 147.257812 C 85.109375 147.824219 85.917969 147.933594 86.429688 147.496094 L 125.59375 113.863281 L 130.546875 119.613281 L 91.378906 153.246094 C 90.871094 153.6875 90.855469 154.5 91.347656 155.066406 L 94.527344 158.765625 C 95.015625 159.335938 95.828125 159.441406 96.335938 159 L 135.496094 125.367188 L 140.449219 131.125 L 101.285156 164.753906 C 100.777344 165.195312 100.757812 166.007812 101.25 166.574219 L 104.429688 170.273438 C 104.921875 170.839844 105.730469 170.945312 106.238281 170.507812 L 145.402344 136.878906 L 150.351562 142.628906 L 111.191406 176.265625 C 110.679688 176.699219 110.664062 177.515625 111.152344 178.082031 L 114.332031 181.777344 C 114.824219 182.347656 115.632812 182.453125 116.140625 182.015625 L 155.304688 148.382812 L 160.257812 154.136719 L 121.09375 187.769531 C 120.585938 188.207031 120.570312 189.023438 121.054688 189.589844 L 124.238281 193.285156 C 124.726562 193.851562 125.535156 193.957031 126.042969 193.523438 L 154.765625 168.855469 L 171.261719 131.09375 L 97.917969 45.878906 C 90.085938 36.785156 77.140625 35.078125 68.996094 42.070312 L 29.25 76.207031 C 27.414062 77.78125 27.355469 80.722656 29.121094 82.769531 L 34.71875 89.277344 " fill-opacity="1" fill-rule="nonzero"/></svg>