<svg xmlns="http://www.w3.org/2000/svg" width="1200" height="700" viewBox="0 0 1200 700" role="img" aria-labelledby="title desc">
  <title id="title">Rensa vattenlås under handfat</title>
  <desc id="desc">Illustration av handfat med vattenlås, hink och handskar.</desc>
  <defs>
    <linearGradient id="bg" x1="0" x2="1" y1="0" y2="1">
      <stop offset="0%" stop-color="#f0f9ff" />
      <stop offset="100%" stop-color="#e2e8f0" />
    </linearGradient>
  </defs>
  <rect width="1200" height="700" fill="url(#bg)" />
  <rect x="250" y="120" width="700" height="70" rx="16" fill="#0f766e" />
  <rect x="320" y="190" width="560" height="260" rx="24" fill="#ffffff" stroke="#0f172a" stroke-width="6" />
  <rect x="565" y="210" width="70" height="80" rx="16" fill="#0ea5e9" />
  <rect x="583" y="285" width="34" height="62" rx="12" fill="#334155" />
  <path d="M600 345 v45 q0 25 -25 25 h-45 q-30 0 -30 30 v40 h200 v-40 q0 -30 -30 -30 h-45 q-25 0 -25 -25 v-45" fill="none" stroke="#1e293b" stroke-width="14" stroke-linecap="round" />
  <rect x="690" y="500" width="210" height="120" rx="16" fill="#38bdf8" stroke="#0c4a6e" stroke-width="6" />
  <rect x="705" y="480" width="180" height="24" rx="10" fill="#bae6fd" />
  <circle cx="365" cy="540" r="44" fill="#f97316" />
  <circle cx="430" cy="540" r="44" fill="#f97316" />
  <text x="120" y="90" fill="#0f172a" font-size="48" font-family="Arial, sans-serif" font-weight="700">Rensa vattenlås: stäng av vatten, placera hink, skruva loss och rengör</text>
</svg>
